<?xml version="1.0" encoding="utf-8" ?><svg xmlns="http://www.w3.org/2000/svg" xmlns:xlink="http://www.w3.org/1999/xlink" width="1024" height="1024" viewBox="0 0 1024 1024"><path fill="#492E0A" d="M522.787 191.098C540.352 190.622 542.449 207.903 541.841 221.338C541.769 222.929 543.271 229.126 543.639 231.18C547.286 251.555 552.058 271.629 558.971 291.164C561.729 298.634 570.823 316.543 574.853 324.323C585.443 343.428 596.783 363.684 610.971 380.365C623.516 395.114 635.214 408.853 646.197 424.833C652.553 433.712 661.538 441.498 667.678 450.366C683.666 473.456 700.57 502.718 710.874 528.737C723.715 561.165 726.854 601.263 726.876 635.809C726.884 649.85 722.446 666.431 719.555 680.343C713.174 701.584 703.087 724.45 691.716 743.529C685.684 753.65 672.809 767.672 664.67 776.273C644.698 794.835 620.614 808.399 594.628 816.497C585.463 819.354 576.134 822.529 566.635 824.301C545.616 827.748 529.691 828.233 508.457 827.544C505.766 827.44 501.528 826.059 498.102 825.845C495.502 825.682 490.015 825.603 487.729 825.2C469.268 821.947 449.21 817.626 431.721 811.033C424.929 808.473 409.494 799.852 403.116 795.922C361.681 770.962 336.158 739.5 318.055 694.922C306.971 667.626 306.166 658.478 303.672 629.261C299.938 585.519 302.851 542.317 320.3 501.406C329.839 482.069 340.715 462.222 352.988 444.485C361.563 432.094 372.001 419.357 381.434 407.517C390.668 395.929 399.365 382.858 408.772 371.741C422.136 357.594 431.759 341.725 443.025 326.17C454.05 310.945 461.587 299.084 470.555 282.659C480.202 264.807 489.3 246.664 497.836 228.255C501.399 220.441 503.766 212.256 507.263 204.4C510.699 196.683 514.457 192.819 522.787 191.098Z"/><path fill="#C89537" d="M520.716 224.728C521.886 225.146 522.055 225.278 523.161 225.873C525.135 229.659 524.868 234.444 525.37 238.654C529.31 271.714 537.438 298.636 553.16 328.393C563.553 348.374 575.615 367.441 589.218 385.391C600.359 399.978 612.954 414.004 624.009 428.839C630.581 437.659 639.283 445.921 646.074 454.865C671.927 488.304 690.54 526.756 700.728 567.777C702.147 573.563 703.279 579.063 704.331 584.899C714.438 640.958 698.331 696.856 665.093 742.417C660.355 748.911 653.678 753.629 648.378 759.445C630.201 779.395 607.797 792.45 581.869 799.706C561.814 804.598 531.085 809.064 510.372 807.711C463.473 804.362 420.97 788.162 385.557 757.169C379.151 751.563 359.063 727.912 354.515 720.429C305.237 639.36 315.669 541.333 365.401 463.444C392.993 420.23 423.586 388.866 452.724 347.647C468.983 324.927 483.081 301.424 496.293 276.879C505.299 260.148 511.791 240.798 520.716 224.728Z"/><path fill="#F5BF57" d="M472.511 470.505C485.339 470.557 482.692 479.262 480.34 488.732C470.887 526.806 462.377 566.739 464.833 606.197C466.272 628.267 473.14 649.463 481.537 669.734C491.369 693.466 508.624 715.97 495.254 742.145C491.562 749.365 485.095 754.775 477.338 757.137C460.504 762.291 446.811 756.213 432.433 748.518C414.651 738.334 396.036 719.268 387.41 701.086C354.67 632.074 398.013 556.69 442.942 504.778C451.642 494.727 458.661 483.123 468.012 473.525C469.378 472.123 470.825 471.351 472.511 470.505Z"/></svg>